<?xml version="1.0" standalone="no"?>
<!DOCTYPE svg PUBLIC "-//W3C//DTD SVG 20010904//EN"
 "http://www.w3.org/TR/2001/REC-SVG-20010904/DTD/svg10.dtd">
<svg version="1.0" xmlns="http://www.w3.org/2000/svg"
 width="329.000000pt" height="329.000000pt" viewBox="0 0 329.000000 329.000000"
 preserveAspectRatio="xMidYMid meet">

<g transform="translate(0.000000,329.000000) scale(0.100000,-0.100000)"
fill="#000000" stroke="none">
<path d="M1965 3086 c-66 -17 -89 -27 -159 -70 -49 -29 -70 -36 -113 -36 -30
0 -70 7 -90 15 -19 8 -36 15 -38 15 -1 0 -19 -37 -40 -82 -32 -68 -39 -93 -39
-148 -1 -111 57 -212 148 -261 l46 -24 0 -131 c0 -143 11 -192 57 -252 58 -76
179 -123 269 -104 39 9 46 7 54 -9 9 -15 3 -26 -28 -57 -71 -71 -102 -166
-102 -313 l0 -79 -312 0 c-172 0 -322 -3 -333 -6 -16 -4 -25 5 -44 41 -13 25
-42 66 -63 90 -37 42 -39 47 -33 90 7 42 9 45 39 45 71 1 167 67 209 145 19
34 22 60 25 185 3 118 7 149 22 170 49 71 53 196 7 286 -33 64 -113 137 -175
159 -65 23 -193 30 -281 15 -282 -47 -465 -324 -396 -595 32 -125 107 -231
209 -299 62 -41 61 -38 10 -123 -40 -67 -48 -120 -42 -296 3 -105 8 -141 25
-178 28 -63 77 -116 137 -147 l51 -27 409 -3 408 -3 64 30 64 30 0 -30 0 -29
325 0 326 0 -3 363 c-3 345 -4 364 -24 408 -44 94 -132 167 -229 189 -48 11
-65 23 -65 47 0 6 35 36 78 66 95 66 152 130 192 211 117 240 12 540 -230 659
-114 56 -226 70 -335 43z m255 -77 c242 -83 360 -361 252 -592 -16 -35 -44
-80 -62 -100 -43 -49 -172 -139 -183 -128 -4 4 -15 47 -23 95 l-15 86 25 33
c38 50 53 116 35 162 -22 58 -59 80 -130 79 -54 -1 -59 1 -59 20 0 53 -70 116
-129 116 -11 0 -49 -16 -86 -35 -70 -38 -106 -39 -128 -4 -10 16 -13 16 -39 3
-30 -15 -29 -23 3 -59 15 -17 16 -26 6 -65 -6 -25 -12 -47 -14 -49 -8 -12 -75
56 -97 101 -33 66 -35 139 -5 209 20 45 23 48 48 41 57 -16 137 -7 187 21 147
81 203 97 304 89 30 -2 80 -13 110 -23z m-954 -323 c63 -29 120 -95 139 -160
19 -64 19 -96 -1 -146 l-16 -39 -41 21 c-31 16 -65 23 -132 25 -119 5 -132 9
-164 44 -23 24 -33 29 -54 23 -31 -7 -31 -10 -13 -43 13 -23 11 -27 -22 -58
-34 -32 -37 -33 -49 -17 -16 22 -16 27 1 69 15 34 14 35 -13 49 -27 15 -28 14
-44 -20 -10 -19 -17 -53 -17 -75 0 -31 -7 -47 -29 -69 -36 -37 -47 -87 -27
-134 15 -36 67 -76 99 -76 13 0 17 -8 17 -35 0 -38 -19 -135 -27 -135 -15 0
-97 66 -127 103 -172 210 -107 537 131 653 74 37 102 42 228 43 96 1 117 -2
161 -23z m714 4 c16 -16 20 -33 20 -90 l0 -70 50 25 c83 42 140 28 140 -36 0
-33 -20 -79 -44 -98 -32 -27 -10 -195 39 -307 l22 -50 -40 -22 c-31 -17 -42
-19 -49 -10 -5 8 0 18 12 27 l21 14 -22 23 -21 22 -51 -24 c-76 -35 -157 -30
-226 15 l-24 15 34 14 c33 13 89 59 89 72 0 4 -11 12 -25 18 -22 10 -30 9 -54
-9 -39 -29 -93 -23 -102 11 -11 40 -10 341 2 383 8 31 14 37 37 37 16 0 48 13
72 29 53 35 93 38 120 11z m-748 -365 c27 -2 64 -12 83 -21 l35 -16 0 -139 c0
-111 -3 -141 -14 -145 -16 -6 -72 20 -78 37 -4 11 -58 -8 -58 -20 0 -18 37
-55 67 -68 29 -12 33 -16 22 -29 -44 -53 -149 -62 -225 -20 l-48 27 -17 -23
c-21 -28 -14 -39 47 -68 39 -20 43 -24 38 -48 -4 -15 -8 -28 -9 -29 0 -2 -25
6 -53 17 -29 11 -61 20 -72 20 -30 0 -31 12 -10 94 11 42 21 111 22 153 l3 77
-55 16 c-44 13 -57 21 -65 43 -10 30 -1 53 28 71 13 8 23 4 45 -17 l29 -28 13
30 c6 17 27 46 46 65 37 38 38 38 226 21z m1087 -339 c60 -32 66 -53 66 -251
0 -259 -2 -262 -281 -409 -100 -53 -186 -96 -191 -96 -5 0 -25 33 -45 74 -28
57 -34 77 -25 84 7 6 66 36 132 67 113 54 122 56 160 47 44 -12 53 -8 57 28 2
19 -3 26 -30 33 l-33 10 3 179 3 180 37 34 c30 27 46 34 78 34 23 0 54 -7 69
-14z m179 -146 c13 -28 17 -81 20 -257 l4 -223 -103 0 -103 0 47 47 c75 75 87
119 87 331 1 163 2 175 16 157 9 -11 23 -36 32 -55z m-438 -120 l0 -149 -31
-17 -31 -16 4 124 c3 103 7 130 26 166 12 23 25 42 27 42 3 0 5 -67 5 -150z
m-1124 1 c18 -11 45 -36 60 -57 28 -36 29 -41 32 -179 l3 -141 -40 -27 c-35
-24 -40 -30 -31 -47 17 -32 30 -33 70 -6 34 23 50 26 120 26 l81 0 -3 -62 -3
-63 -100 1 c-123 0 -166 14 -221 69 -58 59 -66 94 -62 289 2 135 6 167 21 189
21 32 32 33 73 8z m207 -104 c36 -48 65 -108 72 -152 3 -22 8 -55 11 -72 l5
-33 -66 0 -65 0 0 103 c0 95 -6 137 -24 195 -8 23 -7 23 17 7 14 -9 37 -31 50
-48z m731 -136 c-5 -5 -59 -34 -120 -65 l-112 -56 -173 2 -174 3 -3 48 c-2 27
2 55 9 63 9 11 62 14 297 14 165 0 282 -4 276 -9z m-60 -208 c35 -72 37 -78
20 -90 -17 -13 -47 -17 -89 -14 -50 5 -85 93 -52 133 16 19 58 48 72 48 6 0
28 -35 49 -77z m-410 -5 c35 -50 5 -97 -67 -105 l-47 -6 0 67 0 66 49 0 c40 0
53 -4 65 -22z m211 -15 c1 -21 5 -50 9 -65 l8 -28 -78 0 -79 0 0 65 0 65 70 0
70 0 0 -37z m903 -25 l-3 -63 -127 -3 -126 -3 -12 35 c-17 51 -32 60 -58 33
-15 -16 -18 -27 -12 -37 5 -8 10 -18 10 -22 0 -5 -43 -8 -95 -8 -88 0 -95 1
-95 20 0 15 22 31 88 64 l87 45 173 0 173 1 -3 -62z"/>
<path d="M1818 2504 c-32 -17 -34 -26 -12 -45 34 -28 144 -11 144 22 0 13 -56
39 -82 39 -13 -1 -35 -8 -50 -16z"/>
<path d="M1234 2246 c-10 -26 4 -48 28 -44 17 2 23 10 23 28 0 18 -6 26 -23
28 -13 2 -25 -3 -28 -12z"/>
<path d="M2182 1917 c-44 -46 -15 -160 49 -192 28 -15 33 -15 55 0 41 27 64
74 64 132 0 65 -21 83 -95 83 -41 0 -56 -5 -73 -23z m108 -70 c0 -13 -6 -32
-14 -42 -12 -16 -16 -17 -30 -6 -9 7 -16 26 -16 42 0 26 4 29 30 29 25 0 30
-4 30 -23z"/>
<path d="M543 955 c-31 -13 -63 -59 -63 -89 0 -24 48 -73 88 -89 52 -21 69
-42 51 -63 -11 -13 -26 -15 -70 -11 -55 5 -58 4 -64 -21 -8 -33 7 -42 78 -42
91 0 137 33 137 97 0 42 -22 67 -85 97 -30 14 -55 32 -55 40 0 26 28 39 74 32
41 -7 44 -5 49 19 3 21 0 28 -20 36 -34 13 -82 11 -120 -6z"/>
<path d="M783 963 l-33 -4 0 -160 0 -159 35 0 35 0 0 54 0 53 51 7 c134 18
152 177 24 206 -41 10 -54 10 -112 3z m108 -63 c42 -23 10 -90 -43 -90 -26 0
-28 2 -28 43 0 24 3 47 7 50 10 10 42 8 64 -3z"/>
<path d="M1366 955 c-39 -21 -55 -44 -56 -78 0 -45 17 -65 81 -98 49 -24 60
-34 57 -52 -3 -20 -8 -22 -70 -21 -65 0 -66 0 -70 -27 -5 -33 9 -39 94 -39 49
0 62 4 89 28 24 22 31 36 31 65 0 48 -22 72 -89 103 -58 25 -68 48 -28 66 18
8 35 8 60 1 33 -10 34 -10 40 19 4 16 5 32 2 34 -3 3 -29 7 -58 10 -38 4 -63
0 -83 -11z"/>
<path d="M2423 963 l-33 -4 0 -160 0 -159 40 0 40 0 0 65 c0 47 4 65 13 65 27
0 48 -27 61 -75 12 -48 14 -50 50 -53 38 -3 38 -3 32 25 -20 80 -27 102 -40
112 -12 10 -10 16 10 36 29 29 32 83 6 115 -25 31 -93 43 -179 33z m115 -65
c28 -28 1 -78 -44 -78 -22 0 -24 4 -24 45 0 43 1 45 28 45 15 0 33 -5 40 -12z"/>
<path d="M1031 812 c-25 -81 -47 -153 -49 -159 -3 -9 8 -13 36 -13 39 0 40 1
47 40 l7 40 48 0 c49 0 49 0 61 -40 12 -38 14 -40 51 -40 28 0 39 4 36 13 -2
8 -23 80 -48 160 l-45 147 -50 0 -50 0 -44 -148z m114 11 l13 -43 -35 0 c-28
0 -33 3 -29 18 3 9 10 37 17 62 9 32 14 39 17 25 2 -11 10 -39 17 -62z"/>
<path d="M1645 948 c-2 -7 -23 -73 -45 -147 -23 -74 -44 -140 -47 -148 -4 -9
6 -13 36 -13 39 0 41 2 51 41 l11 40 46 -3 c43 -3 47 -5 58 -38 11 -32 16 -35
53 -38 l41 -3 -14 43 c-8 24 -30 96 -50 161 l-36 117 -50 0 c-31 0 -51 -5 -54
-12z m79 -140 c6 -26 4 -28 -28 -28 l-34 0 16 62 15 62 12 -35 c7 -19 15 -46
19 -61z"/>
<path d="M1890 800 l0 -160 100 0 100 0 0 30 c0 29 -1 29 -62 32 l-63 3 -3
128 -3 127 -34 0 -35 0 0 -160z"/>
<path d="M2130 800 l0 -160 105 0 105 0 0 30 0 30 -65 0 -65 0 0 40 0 40 60 0
60 0 0 30 0 30 -60 0 -60 0 0 30 0 30 65 0 65 0 0 30 0 30 -105 0 -105 0 0
-160z"/>
<path d="M2650 930 c0 -29 2 -30 45 -30 l45 0 0 -130 0 -130 35 0 35 0 0 130
0 130 45 0 c43 0 45 1 45 30 l0 30 -125 0 -125 0 0 -30z"/>
<path d="M480 265 l0 -35 1205 0 1205 0 0 35 0 35 -1205 0 -1205 0 0 -35z"/>
</g>
</svg>
